<svg width="20" height="20" viewBox="0 0 20 20" fill="none" xmlns="http://www.w3.org/2000/svg">
    <path d="M0.640602 8.85784C0.535501 8.41642 0.921021 8.01364 1.36663 8.09933L7.84572 9.34519L9.1665 16.6666H2.99349C2.70408 16.6666 2.45252 16.4679 2.38549 16.1864L0.640602 8.85784Z" fill="#FFB54E"/>
    <path d="M18.6331 8.09933C19.0787 8.01364 19.4643 8.41642 19.3592 8.85785L17.6143 16.1864C17.5472 16.4679 17.2957 16.6666 17.0062 16.6666H10.8333L12.154 9.3452L18.6331 8.09933Z" fill="#FFB54E"/>
    <path d="M2.69415 18.2766C2.59553 17.8821 2.89388 17.5 3.30049 17.5H16.6995C17.1061 17.5 17.4045 17.8821 17.3059 18.2766L17.2017 18.6933C17.1321 18.9715 16.8821 19.1667 16.5953 19.1667H3.40465C3.11786 19.1667 2.86787 18.9715 2.79831 18.6933L2.69415 18.2766Z" fill="#FFCC69"/>
    <path d="M9.4609 5.50316C9.70235 5.09126 10.2978 5.09126 10.5393 5.50316L17.0834 16.6667H2.91675L9.4609 5.50316Z" fill="#FFCC69"/>
    <path d="M9.77423 0.47474C9.86467 0.284565 10.1353 0.284565 10.2258 0.474741L10.8038 1.69025C10.8403 1.76689 10.9131 1.8198 10.9972 1.83078L12.3319 2.00493C12.5407 2.03218 12.6244 2.28959 12.4714 2.43437L11.494 3.35975C11.4324 3.41809 11.4046 3.50371 11.4202 3.58713L11.667 4.91027C11.7056 5.11729 11.4866 5.27638 11.3017 5.17568L10.1195 4.53208C10.045 4.49151 9.95499 4.49151 9.88046 4.53208L8.69834 5.17568C8.51339 5.27638 8.29442 5.11729 8.33304 4.91027L8.57984 3.58713C8.5954 3.50371 8.56758 3.41809 8.50596 3.35975L7.52857 2.43437C7.37565 2.28959 7.45929 2.03218 7.6681 2.00493L9.00275 1.83078C9.0869 1.8198 9.15973 1.76689 9.19618 1.69025L9.77423 0.47474Z" fill="#FFCC69"/>
</svg>
